G04 #@! TF.GenerationSoftware,KiCad,Pcbnew,(6.0.6)*
G04 #@! TF.CreationDate,2022-08-28T18:45:50+02:00*
G04 #@! TF.ProjectId,Pantalla_POV_V2,50616e74-616c-46c6-915f-504f565f5632,rev?*
G04 #@! TF.SameCoordinates,Original*
G04 #@! TF.FileFunction,Soldermask,Bot*
G04 #@! TF.FilePolarity,Negative*
%FSLAX46Y46*%
G04 Gerber Fmt 4.6, Leading zero omitted, Abs format (unit mm)*
G04 Created by KiCad (PCBNEW (6.0.6)) date 2022-08-28 18:45:50*
%MOMM*%
%LPD*%
G01*
G04 APERTURE LIST*
G04 Aperture macros list*
%AMRoundRect*
0 Rectangle with rounded corners*
0 $1 Rounding radius*
0 $2 $3 $4 $5 $6 $7 $8 $9 X,Y pos of 4 corners*
0 Add a 4 corners polygon primitive as box body*
4,1,4,$2,$3,$4,$5,$6,$7,$8,$9,$2,$3,0*
0 Add four circle primitives for the rounded corners*
1,1,$1+$1,$2,$3*
1,1,$1+$1,$4,$5*
1,1,$1+$1,$6,$7*
1,1,$1+$1,$8,$9*
0 Add four rect primitives between the rounded corners*
20,1,$1+$1,$2,$3,$4,$5,0*
20,1,$1+$1,$4,$5,$6,$7,0*
20,1,$1+$1,$6,$7,$8,$9,0*
20,1,$1+$1,$8,$9,$2,$3,0*%
G04 Aperture macros list end*
%ADD10RoundRect,0.250001X-0.799999X-0.799999X0.799999X-0.799999X0.799999X0.799999X-0.799999X0.799999X0*%
%ADD11C,2.100000*%
%ADD12C,2.250000*%
%ADD13R,1.350000X1.350000*%
%ADD14C,1.350000*%
G04 APERTURE END LIST*
D10*
X417750000Y-130500000D03*
D11*
X422350000Y-130500000D03*
D12*
X394060000Y-98680000D03*
X446060000Y-123680000D03*
X394060000Y-123680000D03*
X446060000Y-98680000D03*
D13*
X442920000Y-98180000D03*
D14*
X440380000Y-98180000D03*
X437840000Y-98180000D03*
X435300000Y-98180000D03*
X432760000Y-98180000D03*
X430220000Y-98180000D03*
X427680000Y-98180000D03*
X425140000Y-98180000D03*
X422600000Y-98180000D03*
X420060000Y-98180000D03*
X417520000Y-98180000D03*
X414980000Y-98180000D03*
X412440000Y-98180000D03*
X409900000Y-98180000D03*
X407360000Y-98180000D03*
X404820000Y-98180000D03*
X402280000Y-98180000D03*
X399740000Y-98180000D03*
X397200000Y-98180000D03*
D13*
X397200000Y-124180000D03*
D14*
X399740000Y-124180000D03*
X402280000Y-124180000D03*
X404820000Y-124180000D03*
X407360000Y-124180000D03*
X409900000Y-124180000D03*
X412440000Y-124180000D03*
X414980000Y-124180000D03*
X417520000Y-124180000D03*
X420060000Y-124180000D03*
X422600000Y-124180000D03*
X425140000Y-124180000D03*
X427680000Y-124180000D03*
X430220000Y-124180000D03*
X432760000Y-124180000D03*
X435300000Y-124180000D03*
X437840000Y-124180000D03*
X440380000Y-124180000D03*
X442920000Y-124180000D03*
M02*
