M48
; DRILL file {KiCad (6.0.6)} date Sun Aug 28 18:46:06 2022
; FORMAT={-:-/ absolute / metric / decimal}
; #@! TF.CreationDate,2022-08-28T18:46:06+02:00
; #@! TF.GenerationSoftware,Kicad,Pcbnew,(6.0.6)
; #@! TF.FileFunction,Plated,1,2,PTH
FMAT,2
METRIC
; #@! TA.AperFunction,Plated,PTH,ViaDrill
T1C0.400
; #@! TA.AperFunction,Plated,PTH,ComponentDrill
T2C0.900
; #@! TA.AperFunction,Plated,PTH,ComponentDrill
T3C1.100
%
G90
G05
T1
X182.1Y-108.95
X301.8Y-114.47
X301.81Y-108.96
X417.43Y-108.77
X421.81Y-109.0
X421.82Y-114.72
X541.81Y-109.01
X541.82Y-114.62
T2
X397.2Y-98.18
X397.2Y-124.18
X399.74Y-98.18
X399.74Y-124.18
X402.28Y-98.18
X402.28Y-124.18
X404.82Y-98.18
X404.82Y-124.18
X407.36Y-98.18
X407.36Y-124.18
X409.9Y-98.18
X409.9Y-124.18
X412.44Y-98.18
X412.44Y-124.18
X414.98Y-98.18
X414.98Y-124.18
X417.52Y-98.18
X417.52Y-124.18
X420.06Y-98.18
X420.06Y-124.18
X422.6Y-98.18
X422.6Y-124.18
X425.14Y-98.18
X425.14Y-124.18
X427.68Y-98.18
X427.68Y-124.18
X430.22Y-98.18
X430.22Y-124.18
X432.76Y-98.18
X432.76Y-124.18
X435.3Y-98.18
X435.3Y-124.18
X437.84Y-98.18
X437.84Y-124.18
X440.38Y-98.18
X440.38Y-124.18
X442.92Y-98.18
X442.92Y-124.18
T3
X417.75Y-130.5
X422.35Y-130.5
T0
M30
